<svg id="Layer_1" data-name="Layer 1" xmlns="http://www.w3.org/2000/svg" viewBox="0 0 28.66 30"><defs><style>.cls-1{fill:#fbb615;}</style></defs><title>vi-logo</title><path class="cls-1" d="M15,12.76a2.06,2.06,0,0,1,4.1,0V15.9a3.15,3.15,0,0,1-6.3-.07V12.51h-1.1a1.24,1.24,0,0,1,.36-.87,1.26,1.26,0,0,1,2.14.87v3.25A1.82,1.82,0,0,0,14.73,17a1.77,1.77,0,0,0,1.25.52A1.84,1.84,0,0,0,17.24,17a1.77,1.77,0,0,0,.51-1.19V12.71h0a.7.7,0,0,0-.21-.45.74.74,0,0,0-.49-.22.82.82,0,0,0-.51.2h0a.74.74,0,0,0-.2.5.79.79,0,0,0,.2.51.72.72,0,0,0,.51.22v1.34a2,2,0,0,1-1.43-.6A2.05,2.05,0,0,1,15,12.76m7.38-5.83L25.53,3.8l.95.94L23.34,7.87ZM6.27,3.8,9.32,6.93l-1,.94L5.29,4.74Zm9-3H16.6V4.55H15.26ZM25.78,13.7h4.45V15H25.74V13.7Zm-24.17,0H6.06V15H1.57V13.7Zm17.78,7.49v2.6h-7v-2.6a7.67,7.67,0,1,1,7,0m-5.68-.83v2.1h4.34V20.3a6.14,6.14,0,0,0,3.14-2.47,6.32,6.32,0,1,0-10.63,0,6.6,6.6,0,0,0,3.15,2.56" transform="translate(-1.57 -0.79)"/><path class="cls-1" d="M13.85,25.06h4.72v.67c0,6.47-5.37,7-5.37,0v-.67h.65Zm3.38,1.34H14.54c0,4,2.69,3.8,2.69,0" transform="translate(-1.57 -0.79)"/></svg>